<svg width="60" height="60" viewBox="0 0 60 60" fill="none" xmlns="http://www.w3.org/2000/svg">
<path d="M51.2175 42.8501L41.055 33.6101C40.5746 33.1735 39.9434 32.9406 39.2945 32.9607C38.6457 32.9807 38.03 33.2522 37.5775 33.7176L31.595 39.8701C30.155 39.5951 27.26 38.6926 24.28 35.7201C21.3 32.7376 20.3975 29.8351 20.13 28.4051L26.2775 22.4201C26.7436 21.9679 27.0154 21.3522 27.0354 20.7031C27.0555 20.0541 26.8222 19.4227 26.385 18.9426L17.1475 8.78261C16.7101 8.301 16.1022 8.00887 15.4529 7.96826C14.8036 7.92765 14.164 8.14175 13.67 8.56511L8.245 13.2176C7.81278 13.6514 7.5548 14.2287 7.52 14.8401C7.4825 15.4651 6.7675 30.2701 18.2475 41.7551C28.2625 51.7676 40.8075 52.5001 44.2625 52.5001C44.7675 52.5001 45.0775 52.4851 45.16 52.4801C45.7713 52.4459 46.3483 52.1868 46.78 51.7526L51.43 46.3251C51.8551 45.8327 52.0708 45.1936 52.0311 44.5444C51.9914 43.8951 51.6994 43.2871 51.2175 42.8501Z" fill="white"/>
</svg>
