<svg width="55" height="42" viewBox="0 0 55 42" fill="none" xmlns="http://www.w3.org/2000/svg">
<path d="M12.6042 17.0833C12.0002 17.0833 11.4206 17.1754 10.8437 17.2593C11.0306 16.631 11.2229 15.9918 11.5317 15.4177C11.8404 14.5835 12.3225 13.8604 12.8019 13.1318C13.2027 12.3437 13.9096 11.8102 14.4296 11.1358C14.974 10.4804 15.716 10.0443 16.3037 9.49997C16.8806 8.93122 17.6362 8.64684 18.2375 8.24601C18.8658 7.8858 19.4129 7.48768 19.9979 7.29809L21.4577 6.69684L22.7415 6.1633L21.4279 0.914551L19.811 1.30455C19.2937 1.43455 18.6627 1.58622 17.945 1.76767C17.211 1.90309 16.4283 2.27413 15.5562 2.61268C14.695 2.99726 13.6983 3.25726 12.7721 3.87476C11.8404 4.46518 10.7652 4.95809 9.81729 5.74893C8.89916 6.56413 7.79145 7.27101 6.97354 8.3083C6.07979 9.27788 5.19687 10.2962 4.51166 11.4554C3.71812 12.5604 3.17916 13.7737 2.61041 14.9735C2.09583 16.1733 1.68145 17.4002 1.34291 18.5918C0.701038 20.9806 0.413955 23.2502 0.302913 25.1921C0.21083 27.1366 0.264997 28.7535 0.378747 29.9235C0.419372 30.476 0.495205 31.0123 0.549372 31.3833L0.61708 31.8383L0.687496 31.8221C1.1692 34.0722 2.27811 36.14 3.88594 37.7863C5.49377 39.4325 7.53482 40.59 9.77298 41.1247C12.0111 41.6594 14.355 41.5496 16.5333 40.8079C18.7116 40.0661 20.6355 38.7229 22.0823 36.9334C23.5291 35.144 24.4397 32.9815 24.7088 30.6962C24.978 28.4108 24.5946 26.096 23.6031 24.0194C22.6115 21.9428 21.0524 20.1894 19.1059 18.9619C17.1595 17.7345 14.9053 17.0831 12.6042 17.0833ZM42.3958 17.0833C41.7919 17.0833 41.2123 17.1754 40.6354 17.2593C40.8223 16.631 41.0146 15.9918 41.3233 15.4177C41.6321 14.5835 42.1142 13.8604 42.5935 13.1318C42.9944 12.3437 43.7012 11.8102 44.2212 11.1358C44.7656 10.4804 45.5077 10.0443 46.0954 9.49997C46.6723 8.93122 47.4279 8.64684 48.0292 8.24601C48.6575 7.8858 49.2046 7.48768 49.7896 7.29809L51.2494 6.69684L52.5331 6.1633L51.2196 0.914551L49.6027 1.30455C49.0854 1.43455 48.4544 1.58622 47.7367 1.76767C47.0027 1.90309 46.22 2.27413 45.3479 2.61268C44.4894 2.99997 43.49 3.25726 42.5637 3.87747C41.6321 4.46788 40.5569 4.9608 39.609 5.75163C38.6908 6.56684 37.5831 7.27372 36.7652 8.3083C35.8714 9.27788 34.9885 10.2962 34.3033 11.4554C33.5098 12.5604 32.9708 13.7737 32.4021 14.9735C31.8875 16.1733 31.4731 17.4002 31.1346 18.5918C30.4927 20.9806 30.2056 23.2502 30.0946 25.1921C30.0025 27.1366 30.0567 28.7535 30.1704 29.9235C30.211 30.476 30.2869 31.0123 30.341 31.3833L30.4087 31.8383L30.4792 31.8221C30.9609 34.0722 32.0698 36.14 33.6776 37.7863C35.2854 39.4325 37.3265 40.59 39.5646 41.1247C41.8028 41.6594 44.1466 41.5496 46.325 40.8079C48.5033 40.0661 50.4271 38.7229 51.8739 36.9334C53.3207 35.144 54.2314 32.9815 54.5005 30.6962C54.7696 28.4108 54.3863 26.096 53.3947 24.0194C52.4032 21.9428 50.844 20.1894 48.8976 18.9619C46.9511 17.7345 44.697 17.0831 42.3958 17.0833Z" fill="#636060"/>
</svg>
