<svg width="60" height="60" viewBox="0 0 60 60" fill="none" xmlns="http://www.w3.org/2000/svg">
<path d="M42.5 8.75013C42.5 8.41861 42.3683 8.10067 42.1339 7.86625C41.8995 7.63183 41.5815 7.50013 41.25 7.50013H35C31.8528 7.34336 28.7715 8.43861 26.4293 10.5466C24.0871 12.6546 22.6745 15.6039 22.5 18.7501V25.5001H16.25C15.9185 25.5001 15.6005 25.6318 15.3661 25.8663C15.1317 26.1007 15 26.4186 15 26.7501V33.2501C15 33.5817 15.1317 33.8996 15.3661 34.134C15.6005 34.3684 15.9185 34.5001 16.25 34.5001H22.5V51.2501C22.5 51.5817 22.6317 51.8996 22.8661 52.134C23.1005 52.3684 23.4185 52.5001 23.75 52.5001H31.25C31.5815 52.5001 31.8995 52.3684 32.1339 52.134C32.3683 51.8996 32.5 51.5817 32.5 51.2501V34.5001H39.05C39.328 34.5041 39.5993 34.4153 39.8212 34.2478C40.0431 34.0803 40.2027 33.8436 40.275 33.5751L42.075 27.0751C42.1247 26.8904 42.1314 26.6968 42.0945 26.5091C42.0577 26.3214 41.9782 26.1447 41.8623 25.9926C41.7464 25.8404 41.5971 25.7169 41.4259 25.6315C41.2547 25.5462 41.0663 25.5012 40.875 25.5001H32.5V18.7501C32.5622 18.1313 32.8528 17.5579 33.3151 17.1419C33.7773 16.7258 34.3781 16.497 35 16.5001H41.25C41.5815 16.5001 41.8995 16.3684 42.1339 16.134C42.3683 15.8996 42.5 15.5817 42.5 15.2501V8.75013Z" fill="white"/>
</svg>
