<svg width="60" height="60" viewBox="0 0 60 60" fill="none" xmlns="http://www.w3.org/2000/svg">
<path d="M18.8475 56.2502C41.49 56.2502 53.8762 37.4889 53.8762 21.2477C53.8762 20.7227 53.8763 20.1902 53.8538 19.6652C56.2652 17.9195 58.3465 15.7582 60 13.2827C57.7474 14.2758 55.3604 14.9304 52.9163 15.2252C55.4907 13.6863 57.419 11.265 58.3425 8.41141C55.9237 9.84437 53.2763 10.8503 50.5163 11.3852C48.6607 9.409 46.2053 8.09985 43.5303 7.6605C40.8554 7.22115 38.1102 7.67611 35.72 8.95492C33.3298 10.2337 31.428 12.265 30.3092 14.7341C29.1903 17.2033 28.9169 19.9724 29.5312 22.6127C24.6365 22.3672 19.8481 21.0957 15.4764 18.8804C11.1048 16.6652 7.24757 13.5558 4.155 9.75391C2.58503 12.4655 2.1059 15.6729 2.81492 18.7249C3.52394 21.7769 5.36796 24.4446 7.9725 26.1864C6.02077 26.1201 4.11195 25.596 2.4 24.6564V24.8252C2.40337 27.6657 3.3874 30.418 5.18578 32.6168C6.98415 34.8155 9.48655 36.3259 12.27 36.8927C11.2135 37.1837 10.1221 37.3288 9.02625 37.3239C8.25369 37.3263 7.48268 37.2547 6.72375 37.1102C7.51045 39.5554 9.04227 41.6933 11.1047 43.2244C13.1671 44.7556 15.6568 45.6033 18.225 45.6489C13.8621 49.0757 8.47275 50.9342 2.925 50.9252C1.94745 50.9293 0.970587 50.8729 0 50.7564C5.63068 54.3461 12.1699 56.2522 18.8475 56.2502Z" fill="white"/>
</svg>
