<svg width="60" height="60" viewBox="0 0 60 60" fill="none" xmlns="http://www.w3.org/2000/svg">
<path d="M50.3999 17.1001C43.1999 6.00012 28.4999 2.70012 17.0999 9.60012C5.99995 16.5001 2.39995 31.5001 9.59995 42.6001L10.1999 43.5001L7.79995 52.5001L16.7999 50.1001L17.7 50.7001C21.5999 52.8001 25.7999 54.0001 30 54.0001C34.5 54.0001 39 52.8001 42.9 50.4001C54 43.2001 57.2999 28.5001 50.3999 17.1001ZM44.0999 40.2001C42.8999 42.0001 41.3999 43.2001 39.2999 43.5001C38.0999 43.5001 36.5999 44.1001 30.5999 41.7001C25.4999 39.3001 21.2999 35.4001 18.2999 30.9001C16.4999 28.8001 15.5999 26.1001 15.2999 23.4001C15.2999 21.0001 16.2 18.9001 17.7 17.4001C18.3 16.8001 18.8999 16.5001 19.4999 16.5001H20.9999C21.5999 16.5001 22.2 16.5001 22.5 17.7001C23.1 19.2001 24.5999 22.8001 24.5999 23.1001C24.8999 23.4001 24.8999 24.0001 24.5999 24.3001C24.8999 24.9001 24.6 25.5001 24.3 25.8001C24 26.1001 23.6999 26.7001 23.4 27.0001C22.7999 27.3001 22.5 27.9001 22.7999 28.5001C24 30.3001 25.5 32.1001 27 33.6001C28.7999 35.1001 30.5999 36.3001 32.6999 37.2001C33.2999 37.5001 33.9 37.5001 34.1999 36.9001C34.4999 36.3001 35.9999 34.8001 36.5999 34.2001C37.1999 33.6001 37.4999 33.6001 38.0999 33.9001L42.9 36.3001C43.5 36.6001 44.1 36.9001 44.4 37.2001C44.7 38.1001 44.6999 39.3001 44.0999 40.2001Z" fill="white"/>
</svg>
